<!DOCTYPE svg PUBLIC "-//W3C//DTD SVG 20010904//EN" "http://www.w3.org/TR/2001/REC-SVG-20010904/DTD/svg10.dtd">
<svg version="1.0" xmlns="http://www.w3.org/2000/svg" width="1200px" height="1200px" viewBox="0 0 12000 12000" preserveAspectRatio="xMidYMid meet">
<g id="layer101" fill="#9a0c14" stroke="none">
 <path d="M5812 11729 c-6 -13 -26 -62 -42 -109 -99 -277 -224 -598 -231 -594 -5 3 -6 -1 -3 -9 3 -8 -38 -128 -90 -268 -52 -140 -98 -266 -102 -281 l-6 -28 165 0 165 0 6 -372 c3 -205 4 -944 2 -1643 -4 -1622 -4 -1595 -16 -1595 -11 0 -1580 1559 -1580 1570 0 7 49 58 336 352 79 82 144 152 144 158 0 10 -53 36 -330 163 -60 27 -143 65 -263 121 -43 20 -80 36 -82 36 -2 0 -45 20 -97 44 -51 24 -113 52 -138 64 -25 11 -85 39 -135 62 -49 23 -110 51 -135 62 -25 11 -67 30 -95 43 -27 12 -72 33 -100 45 -27 13 -92 42 -143 66 -52 24 -96 44 -98 44 -2 0 -63 29 -136 64 -158 76 -309 146 -313 146 -3 0 -144 65 -250 115 -27 13 -86 40 -130 60 -44 20 -111 52 -148 70 l-69 33 7 -25 c6 -24 88 -210 185 -418 23 -49 52 -115 65 -145 13 -30 48 -108 79 -173 31 -65 56 -120 56 -123 0 -2 23 -52 51 -112 29 -59 66 -141 84 -182 18 -41 51 -113 73 -160 22 -47 88 -191 147 -320 112 -246 245 -536 300 -655 18 -38 61 -133 95 -210 35 -77 69 -146 76 -154 11 -12 52 25 266 243 l253 257 685 -688 c377 -378 710 -714 740 -745 l54 -58 -1247 0 -1247 0 -2 298 -3 297 -30 -1 c-22 -1 -1215 -437 -1350 -494 -11 -4 -230 -86 -487 -182 -257 -95 -466 -177 -465 -183 2 -5 237 -97 523 -204 285 -106 564 -211 619 -232 407 -155 1179 -438 1186 -433 5 3 9 140 9 305 l0 299 1300 0 c715 0 1300 -4 1300 -9 0 -12 -2531 -2531 -2544 -2531 -6 0 -93 82 -193 182 l-182 182 -26 -57 c-13 -31 -48 -108 -76 -170 -154 -337 -153 -334 -189 -412 -18 -38 -49 -108 -70 -155 -21 -47 -57 -125 -80 -175 -23 -49 -50 -108 -60 -130 -10 -22 -35 -76 -55 -120 -21 -44 -68 -147 -105 -230 -37 -82 -81 -179 -98 -215 -16 -36 -39 -85 -50 -110 -11 -25 -36 -81 -56 -124 -20 -44 -35 -81 -33 -83 3 -2 73 28 158 67 194 89 171 78 324 151 72 33 150 69 175 79 43 17 597 270 770 352 47 22 135 62 195 88 169 73 345 159 345 167 0 5 -79 87 -175 183 -96 96 -175 181 -175 189 0 8 478 494 1063 1080 1150 1153 1420 1421 1426 1415 6 -6 0 -839 -7 -954 l-7 -105 -349 -3 -348 -2 4 -23 c4 -19 357 -972 422 -1142 22 -55 60 -157 105 -280 10 -27 32 -86 49 -130 17 -44 122 -326 234 -627 111 -301 207 -546 212 -545 4 2 31 63 58 137 28 74 75 200 105 280 31 80 79 210 108 290 43 120 152 409 210 560 7 19 88 238 180 485 92 248 190 511 217 585 28 74 64 171 80 215 15 44 33 89 38 100 26 53 31 78 18 87 -7 4 -167 8 -355 8 l-343 0 0 470 c0 259 3 470 8 470 11 0 3522 -3514 3522 -3525 0 -5 -75 -85 -167 -177 -104 -105 -164 -171 -158 -177 6 -5 102 -50 215 -101 113 -50 234 -106 270 -122 72 -34 191 -89 260 -120 25 -11 122 -55 215 -98 94 -43 197 -90 230 -105 33 -15 89 -41 125 -57 36 -17 135 -62 220 -100 85 -39 193 -88 238 -109 151 -71 294 -131 299 -126 2 3 0 13 -6 24 -9 16 -32 67 -81 178 -10 22 -34 76 -55 120 -61 132 -81 176 -115 255 -18 41 -49 111 -70 155 -117 248 -218 466 -257 560 -14 33 -47 105 -73 160 -55 116 -98 209 -130 280 -12 28 -47 103 -76 167 -30 65 -59 129 -64 143 -5 14 -15 25 -22 25 -7 0 -88 -75 -181 -168 l-168 -167 -1720 1723 c-945 948 -1719 1729 -1719 1737 0 13 89 15 660 15 l660 0 0 -435 c0 -350 3 -435 13 -435 12 0 174 59 587 215 80 30 278 104 440 164 162 60 360 134 440 166 80 31 181 70 225 87 44 16 96 36 115 43 19 8 303 113 630 235 771 286 893 332 904 341 4 4 -3 10 -15 14 -13 4 -37 13 -54 20 -16 7 -455 171 -975 365 -520 193 -953 356 -962 361 -10 5 -23 9 -30 9 -7 0 -24 6 -38 13 -14 7 -54 23 -90 36 -36 12 -73 27 -82 32 -10 5 -23 9 -30 9 -7 0 -25 7 -40 14 -16 8 -58 25 -95 37 -38 12 -72 26 -77 31 -6 4 -17 8 -25 8 -9 1 -34 9 -56 20 -22 11 -46 19 -53 20 -7 0 -20 4 -30 9 -9 5 -46 19 -82 32 -36 12 -69 26 -74 31 -6 4 -16 8 -24 8 -8 0 -28 6 -45 14 -18 7 -54 21 -82 31 -27 10 -63 23 -80 30 -16 7 -77 30 -135 50 -58 21 -109 41 -115 45 -5 4 -22 10 -37 14 l-28 6 0 -435 0 -435 -725 0 c-688 0 -725 1 -716 18 5 9 107 113 226 231 l217 214 128 -134 c71 -74 130 -132 133 -129 2 3 22 46 45 95 22 50 76 169 120 265 44 96 92 202 107 235 15 33 78 171 140 306 62 135 123 268 135 295 12 27 44 98 71 157 65 142 90 207 81 207 -4 0 -80 -33 -167 -74 -88 -40 -185 -84 -215 -98 -30 -14 -100 -46 -155 -71 -55 -24 -126 -56 -157 -71 -65 -29 -55 -25 -488 -224 -173 -79 -325 -148 -337 -153 -13 -5 -23 -14 -23 -20 0 -7 52 -65 115 -129 63 -64 115 -123 115 -131 0 -8 -149 -165 -332 -349 -308 -311 -332 -333 -339 -310 -4 14 -7 851 -8 1861 l-1 1836 166 6 c92 4 168 8 170 10 4 4 -10 54 -26 92 -4 11 -104 277 -220 590 -117 314 -218 583 -224 599 l-11 28 -13 -23z"/>
 </g>

</svg>