<?xml version="1.0" encoding="utf-8"?>
<!-- Generator: Adobe Illustrator 26.4.1, SVG Export Plug-In . SVG Version: 6.00 Build 0)  -->
<svg version="1.1" id="Layer_1" xmlns="http://www.w3.org/2000/svg" xmlns:xlink="http://www.w3.org/1999/xlink" x="0px" y="0px"
	 viewBox="0 0 320 320" style="enable-background:new 0 0 320 320;" xml:space="preserve">
<g>
	<path d="M152.32,32.1c5.33,0,10.67,0,16,0c0.11,2.82,0.29,5.65,0.32,8.47c0.07,7,0.22,7.09,7.03,8.14
		c38.21,5.9,66.35,26.12,84.69,60.02c6.33,11.69,9.98,24.31,11.57,37.5c0.43,3.61,1.66,5.89,5.93,5.6
		c3.47-0.24,6.98,0.16,10.47,0.27c0,5.33,0,10.67,0,16c-2.66,0.11-5.31,0.3-7.97,0.32c-7.67,0.06-7.48,0.06-8.72,7.52
		c-6.95,41.97-30.15,71.34-69.01,88.38c-9.04,3.96-18.6,6.3-28.43,7.39c-3.61,0.4-5.89,1.66-5.6,5.92
		c0.24,3.47-0.16,6.98-0.27,10.47c-5.33,0-10.67,0-16,0c-0.11-2.66-0.3-5.31-0.32-7.97c-0.06-7.67-0.05-7.53-7.52-8.71
		c-37.18-5.88-64.88-25.45-83.26-58.18c-6.67-11.88-10.79-24.72-12.29-38.29c-0.54-4.91-2.46-7.19-7.64-6.59
		c-2.94,0.34-5.97-0.14-8.96-0.25c0-5.33,0-10.67,0-16c2.66-0.11,5.31-0.3,7.97-0.32c7.66-0.06,7.48-0.06,8.71-7.52
		c6.95-41.97,30.16-71.33,69.01-88.38c9.05-3.97,18.63-6.22,28.43-7.39c3.61-0.43,5.89-1.66,5.6-5.93
		C151.81,39.1,152.2,35.59,152.32,32.1z M126.72,159.28c-1.5,2.49-3.14,2.49-4.51,2.84c-14.17,3.66-28.27,7.89-43.21,6.33
		c-4.58-0.48-5.79,1.61-5.04,6c6.19,36.37,33.9,64.64,70.36,71.61c7.25,1.38,8.13,1.01,7.56-6.42c-1.15-15,3.28-28.98,6.94-43.14
		c0.23-0.88,0.24-2.09,1.69-2.17c1.49,0.86,1.47,2.51,1.82,3.88c3.66,14.17,7.91,28.26,6.34,43.21c-0.48,4.56,1.58,5.8,5.98,5.06
		c36.35-6.17,64.67-33.92,71.62-70.35c1.38-7.27,1.02-8.14-6.4-7.57c-15,1.15-28.98-3.28-43.14-6.94c-0.88-0.23-2.09-0.23-2.18-1.68
		c0.85-1.5,2.51-1.47,3.87-1.82c14.17-3.66,28.26-7.91,43.21-6.34c4.56,0.48,5.8-1.59,5.06-5.99c-6.17-36.35-33.94-64.7-70.35-71.61
		c-7.28-1.38-8.15-1.03-7.58,6.4c1.15,15-3.27,28.99-6.93,43.14c-0.23,0.88-0.23,2.09-1.68,2.18c-1.51-0.83-1.47-2.5-1.83-3.86
		c-3.66-14.17-7.91-28.26-6.34-43.21c0.48-4.54-1.54-5.82-5.97-5.06c-34.89,5.97-62.57,31.87-70.83,66.46
		c-2.76,11.55-2.73,12.04,9.14,11.43C99.01,150.88,112.36,156.04,126.72,159.28z"/>
</g>
</svg>
