<?xml version="1.0" encoding="utf-8"?>
<!-- Generator: Adobe Illustrator 26.4.1, SVG Export Plug-In . SVG Version: 6.00 Build 0)  -->
<svg version="1.1" id="Layer_1" xmlns="http://www.w3.org/2000/svg" xmlns:xlink="http://www.w3.org/1999/xlink" x="0px" y="0px"
	 viewBox="0 0 1728 392" style="enable-background:new 0 0 1728 392;" xml:space="preserve">
<style type="text/css">
	.st0{display:none;}
	.st1{fill:#787878;}
</style>
<g id="Layer_1_00000021841514189438779530000015719151354069853069_" class="st0">
	
		<image style="display:inline;overflow:visible;enable-background:new    ;" width="892" height="187" xlink:href="A11A809D.png"  transform="matrix(1.8856 0 0 1.8856 -24.971 76)">
	</image>
</g>
<g id="Layer_3">
	
		<image style="overflow:visible;opacity:0.75;enable-background:new    ;" width="301" height="295" xlink:href="A11A809F.png"  transform="matrix(1 0 0 1 708 73)">
	</image>
	<g>
		<g>
			<path class="st1" d="M767.5,338.5l0.4-3c0.3-2.5-0.5-5-2.2-6.8L765,328c-0.3-0.3-0.6-0.7-0.8-1.2l-3.7-7.4l-5.5-12.9
				c-0.3-0.8-0.6-1.5-0.8-2.3l-1.3-4.8c-0.9-3.3-0.9-6.8-0.1-10.2l0.2-1c0.3-1.2,1.2-2,2.4-2.3l26.1-5.6l-17.8-5.6
				c-0.8-0.2-1.5-0.5-2.3-0.8l-6-2.4c-1.9-0.8-3.5-2.1-4.7-3.8l-0.8-1.2c-0.5-0.8-0.8-1.6-0.8-2.5c0-1,4-2.9,5.7-3.5
				c0.3-0.1,0.6-0.2,1-0.2l8.4-0.9c0.2,0,0.3-0.2,0.2-0.4c-0.6-0.8-3.3-2.2-2.9-2.7l1-2l-38,2v2c3.7,0,9.2,2.8,12.6,4.5
				c0.6,0.3,1.2,0.6,1.8,0.9c1,0.6,1.6,1.8,1.5,3v0.4c0.1,0.6-0.3,1.2-1,1.2l-10.2,0.9c-0.4,0-0.7,0.3-0.8,0.7L728,274l-4.5-0.5
				v-2.8c0-0.4-0.3-0.7-0.7-0.8l-5.3-0.5l-0.6,5.5c-0.2,1.7-0.4,3.4-0.4,5v2.5c0.7,2.7,3.4,3.8,5.8,5.1l2.6,1.4
				c1.7,1,3.7,1.5,5.7,1.5h3.4c1.6,0,3.2,0.6,4.3,1.8l3,3c2.1,2.1,3.7,4.6,4.7,7.3l1.8,4.8c0.5,1.3,1,2.6,1.6,3.8l2.5,5
				c1.7,3.5,3.9,6.8,6.5,9.8l2.2,2.5l4,5L767.5,338.5z"/>
			<path class="st1" d="M777,339l1.6,2.2c0.9,1.2,2,2.2,3.3,3l3,1.8h-2.5c-1,0-1.9-0.3-2.7-0.8l-0.4-0.2c-0.9-0.6-1.5-1.5-1.7-2.6
				L777,339z"/>
			<path class="st1" d="M725.4,224c-1.2,0-1.5-1.6-0.4-2.1l4.9-2.1c3.3-1.2,6.2-3.4,8.2-6.2l0.9-1.3c2-2.9,3.5-6,4.5-9.4l0.8-2.6
				c1.2-4.2,2.7-8.3,4.5-12.3l2.3-5v-0.1l0.3-0.9c1-3.1,0.2-6.4-2-8.7l-0.1-0.1l-3.5-2.8c-1.1-0.9-2.4-1.7-3.8-2.2h-0.1l0,0
				c-2.2-0.6-3.6-2.8-3.2-5.1l0.2-1.5c0.7-4.3,2.5-8.3,5.2-11.7l1.1-1.3c1.6-2,4.4-2.4,6.6-1.1l6.7,4.3c3.8,2.5,8.9,2.1,12.3-1
				l14.6-12.1c3.7-3.1,7.8-5.8,12.1-8l9.5-4.7c7.1-3.7,11.4-6.6,19-9l9.6-3.2c8-2.2,13.7-9.4,14-17.7L850,90c0-0.3,0.4-2.6,0.7-4.3
				c0.2-1.1,0.9-2,1.9-2.5l1.2-0.6c2.8-1.1,5.8-1.3,8.8-0.8l3.3,0.5c2.6,0.4,4.8,2.3,5.6,4.8l0.1,0.3c0.2,0.4,0.2,3.1,0.3,6
				c0.1,9.5,5.9,18.1,14.8,21.5c1.6,0.6,6.1,2.6,8.2,3.1c0.4,0.1,0.8,0.2,1.1,0.3l5.2,1.7c1.9,0.7,7,2.5,11.3,4
				c3.8,1.4,7.5,3.1,11,5.2l6,3.7c4.5,2.8,8.9,5.8,13.2,8.9c2.9,2.1,6.4,5.9,8.3,7.9c0.5,0.5,3.1,2,5.5,3.3c2.7,1.4,5.8,1.9,8.8,1.5
				l2.7-0.4c0.1,0,1.3-0.3,2.5-0.5c1.5-0.3,2.9-1.1,4-2.1c0.4-0.4,0.8-0.6,1.3-0.6c2,0,4,0.8,5.4,2.2l0.4,0.4c0.4,0.6,1.2,1.5,1.6,2
				l3,4.9c0.7,1.1-0.1,2.8-1,3.7c-1.8,1.7-10.6,5.2-12,10c-0.8,2.9,2.1,6.8,4.2,9.1c1.4,1.6,2.6,3.4,3.7,5.2
				c0.7,1.3,1.8,3.2,2.7,4.8c0.9,1.7,1,3.8,0,5.5l-0.6,1.1c0,0.2-1.9,1.1-2,1.3l-3,4c-0.1,0.1-1.8,1.9-2,2l-1.3-0.4
				c-1.1-0.4-1.9-1.2-2.3-2.2c-0.3-0.8-1.3-3.3-2.2-5.4c-0.8-2-1.8-3.8-3.1-5.5L965,190c-0.2-0.3-0.7-1.9-1-2l-2.1-2.9
				c-0.6-0.8-1.6-1.3-2.6-1.4c-3.4-0.2-9.5,0-12.3,0.3c-1.8,0.2-2,0-16,3l9.4-11.6c4.4-5.4,3.8-13.3-1.4-17.9
				c-1.2-1.1-2.1-1.9-2.1-1.9c-1.3-1.7-2.7-3.3-4.3-4.7L925,144c-0.1-0.1-4.1-3-4.2-3.1l-8.1-5.1c-3.7-2.3-11.7-4.8-18.2-6.1
				c-4.2-0.8-15.5-2.4-19.5-0.8c-5.3,2.1-5.5,7.8-8,13.6l-5,13.5l-6-14l-4-9c-3.1-7.2-7.5-6.2-15.3-5l-6.9,1c-0.1,0-0.2,0-0.2,0.1
				c-1.7,0.6-3.3,1.4-4.9,2.3c0,0-0.1,0-0.1,0.1l-3,1.1c-4.3,1.6-8.3,3.8-12.1,6.4l-4.3,3c0,0-0.1,0-0.1,0.1l-5.6,3.1
				c-2.2,1.2-4.3,2.7-6.2,4.4l-7.2,6c-1.9,1.6-3.4,3.7-4.4,6l-0.3,0.9c-1.4,3.5-0.8,7.4,1.4,10.4L793,187l-11.8-1.9
				c-4.7-0.7-9.4-0.5-14,0.7c-0.1,0-0.2,0.1-0.3,0.1l-0.9,0.5c-2.6,1.6-5,3.7-6.9,6.1l-0.3,0.4l-0.1,0.1c-1.1,1.9-2,3.9-2.5,6
				l-1.5,6.6v0.1c-0.1,0.4-0.1,0.8-0.2,1.2c-0.4,3.9,1.3,7.8,4.4,10.2l2,1.6c0,0,0,0,0.1,0.1l5.7,3.8c0.9,0.6,0.5,2.1-0.7,2l-18-0.6
				h-9H725.4z"/>
		</g>
	</g>
</g>
<g id="Layer_2_00000035527805294626323110000005486118311667691904_">
	
		<image style="overflow:visible;opacity:0.75;enable-background:new    ;" width="1693" height="94" xlink:href="A11A809A.png"  transform="matrix(1 0 0 1 25 200)">
	</image>
	<g>
		<g>
			<path class="st1" d="M33,231h766.9c1.3,0,2.5-0.7,3-1.9l0.2-0.5c0.5-1.1,1.2-2.1,2-3.1l2.8-3.6l-8-0.9c-0.7-0.1-1.4-0.2-2.1-0.4
				l-2-0.7h-26l-121,2l-9-14l-9,14l-155,1l-12-14l-11,14l-175,2l-9-14l-10,14l-211,2"/>
			<path class="st1" d="M1696,231H918l0.2-0.5c0.5-1.6,0.3-3.3-0.6-4.6L915,222l13.6-0.9c0.9-0.1,1.8-0.2,2.7-0.5l1.7-0.6h26l121,2
				l9-14l9,14l155,1l12-14l11,14l175,2l9-14l10,14l211,2"/>
			<path class="st1" d="M33,249h769l1,2c0.7,1.3,1.4,2.5,2.3,3.7l2.6,3.3l-7.7,0.9c-0.9,0.1-1.7,0.3-2.6,0.6L796,260h-26l-119-1
				l-11,13l-11-13l-153-2l-12,14l-11-14l-175-2l-9,14l-11-14l-210-2"/>
			<path class="st1" d="M1696,249H915l1.2,0.9c1.3,1,1.3,3.1-0.2,3.9l-4,2.5c-0.3,0.2-0.2,0.7,0.2,0.8L930,259l3,1h26l121-2l9,14
				l9-14l155-1l12,14l11-14l175-2l9,14l10-14l211-2"/>
		</g>
	</g>
</g>
<g id="Layer_2">
	<rect x="460.3" y="225.4" class="st1" width="6.6" height="30.4"/>
	<rect x="636.2" y="229" class="st1" width="6.6" height="30.4"/>
	<rect x="265.2" y="225.3" class="st1" width="6.6" height="30.4"/>
	<rect x="1085.8" y="226.9" class="st1" width="6.6" height="30.4"/>
	<rect x="1260.8" y="226.9" class="st1" width="6.6" height="30.4"/>
	<rect x="1457.5" y="226.1" class="st1" width="6.6" height="30.4"/>
</g>
</svg>
