<?xml version="1.0" encoding="utf-8"?>
<!-- Generator: Adobe Illustrator 23.0.0, SVG Export Plug-In . SVG Version: 6.00 Build 0)  -->
<svg version="1.1" id="Warstwa_1" xmlns="http://www.w3.org/2000/svg" xmlns:xlink="http://www.w3.org/1999/xlink" x="0px" y="0px"
	 viewBox="0 0 480 640" style="enable-background:new 0 0 480 640;" xml:space="preserve">
<style type="text/css">
	.st0{fill:#2D231B;}
	.st1{fill:#35342F;stroke:#000000;stroke-miterlimit:10;}
	.st2{fill:#3F3636;stroke:#000000;stroke-miterlimit:10;}
</style>
<g>
	<rect x="215.5" y="296.5" class="st0" width="45" height="327"/>
	<path d="M260,297v326h-44V297H260 M261,296h-46v328h46V296L261,296z"/>
</g>
<polygon class="st1" points="214.5,324.5 153.5,318.5 96.5,239.5 45.5,27.5 107.5,163.5 124.5,224.5 193.5,262.5 217.5,27.5 "/>
<polygon class="st1" points="261.5,324.5 322.5,318.5 379.5,239.5 430.5,27.5 368.5,163.5 351.5,224.5 282.5,262.5 258.5,27.5 "/>
<polyline class="st2" points="234,324.5 313.5,324.5 336.5,357.5 314.5,385.5 303.5,360.5 286.5,421.5 261.5,375.5 239.5,359.5 
	215,374.4 181.5,421.5 164.5,360.5 153.5,385.5 131.5,357.5 154.5,324.5 234,324.5 "/>
</svg>
